<svg width="100" height="150" viewBox="0 0 100 150" fill="none" xmlns="http://www.w3.org/2000/svg">
<rect width="100" height="150" fill="#D5EEF2"/>
<path d="M51 11C51 10.4477 51.4477 10 52 10H86C86.5523 10 87 10.4477 87 11V45C87 45.5523 86.5523 46 86 46H70C59.5066 46 51 37.4934 51 27V11Z" stroke="#9DD9E4" stroke-width="2"/>
<path d="M60 126C60 121.029 64.0294 117 69 117H70C74.9706 117 79 121.029 79 126V140C79 140.552 78.5523 141 78 141H61C60.4477 141 60 140.552 60 140V126Z" stroke="#9DD9E4" stroke-width="2"/>
<rect x="10" y="53" width="20" height="44" rx="2" stroke="#9DD9E4" stroke-width="2"/>
<path d="M26 75C26 78.1921 25.3509 81.0326 24.3482 83.0381C23.3156 85.1033 22.074 86 21 86C19.926 86 18.6844 85.1033 17.6518 83.0381C16.6491 81.0326 16 78.1921 16 75C16 71.8079 16.6491 68.9674 17.6518 66.9619C18.6844 64.8967 19.926 64 21 64C22.074 64 23.3156 64.8967 24.3482 66.9619C25.3509 68.9674 26 71.8079 26 75Z" stroke="#9DD9E4" stroke-width="2"/>
<line x1="59" y1="136" x2="79" y2="136" stroke="#9DD9E4" stroke-width="2"/>
</svg>
