<svg width="512" height="512" viewBox="0 0 512 512" fill="none" xmlns="http://www.w3.org/2000/svg">
<g clip-path="url(#clip0_68_2)">
<path d="M256 0C114.843 0 0 114.843 0 256C0 397.157 114.843 512 256 512C397.157 512 512 397.157 512 256C512 114.843 397.157 0 256 0ZM348.689 320.849C350.595 322.66 352.119 324.833 353.171 327.242C354.223 329.65 354.783 332.245 354.816 334.874C354.85 337.502 354.357 340.11 353.367 342.545C352.377 344.98 350.909 347.192 349.05 349.05C347.192 350.909 344.98 352.377 342.545 353.367C340.11 354.357 337.502 354.85 334.874 354.816C332.245 354.783 329.65 354.223 327.242 353.171C324.833 352.119 322.66 350.595 320.849 348.689L256 283.852L191.151 348.689C187.428 352.226 182.47 354.169 177.335 354.103C172.2 354.038 167.294 351.969 163.663 348.337C160.031 344.706 157.962 339.8 157.897 334.665C157.831 329.53 159.774 324.572 163.311 320.849L228.148 256L163.311 191.151C159.774 187.428 157.831 182.47 157.897 177.335C157.962 172.2 160.031 167.294 163.663 163.663C167.294 160.031 172.2 157.962 177.335 157.897C182.47 157.831 187.428 159.774 191.151 163.311L256 228.148L320.849 163.311C324.572 159.774 329.53 157.831 334.665 157.897C339.8 157.962 344.706 160.031 348.337 163.663C351.969 167.294 354.038 172.2 354.103 177.335C354.169 182.47 352.226 187.428 348.689 191.151L283.852 256L348.689 320.849Z" fill="#253758"/>
</g>
<defs>
<clipPath id="clip0_68_2">
<rect width="512" height="512" fill="white"/>
</clipPath>
</defs>
</svg>
