<svg width="512" height="512" viewBox="0 0 512 512" fill="none" xmlns="http://www.w3.org/2000/svg">
<g clip-path="url(#clip0_69_4)">
<path d="M256 0C114.843 0 0 114.843 0 256C0 397.157 114.843 512 256 512C397.157 512 512 397.157 512 256C512 114.843 397.157 0 256 0ZM354.462 275.692H157.538C152.316 275.692 147.307 273.618 143.614 269.925C139.921 266.232 137.846 261.223 137.846 256C137.846 250.777 139.921 245.768 143.614 242.075C147.307 238.382 152.316 236.308 157.538 236.308H354.462C359.684 236.308 364.693 238.382 368.386 242.075C372.079 245.768 374.154 250.777 374.154 256C374.154 261.223 372.079 266.232 368.386 269.925C364.693 273.618 359.684 275.692 354.462 275.692Z" fill="#253758"/>
</g>
<defs>
<clipPath id="clip0_69_4">
<rect width="512" height="512" fill="white"/>
</clipPath>
</defs>
</svg>
